<svg width="185" height="185" viewBox="0 0 185 185" fill="none" xmlns="http://www.w3.org/2000/svg">
<path d="M9 9H176V176H9V9Z" fill="white" stroke="#1C396F" stroke-width="18"/>
<g clip-path="url(#clip0_613_0)">
<path d="M138.942 107.377C138.942 132.865 118.149 153.527 92.5 153.527C66.8509 153.527 46.0581 132.865 46.0581 107.377C46.0581 81.8895 66.8509 61.2275 92.5 61.2275C118.149 61.2275 138.942 81.8895 138.942 107.377ZM68.0841 107.377C68.0841 120.777 79.0155 131.64 92.5 131.64C105.985 131.64 116.916 120.777 116.916 107.377C116.916 93.9776 105.985 83.1149 92.5 83.1149C79.0155 83.1149 68.0841 93.9776 68.0841 107.377Z" fill="#1C396F"/>
<path d="M112.94 120.032L124.833 141.198L124.838 141.207L125.508 142.399L126.179 141.207L126.183 141.198L138.077 120.032L138.174 119.859V119.661V57.699V56.9362H137.407H113.61H112.842V57.699V119.661V119.859L112.94 120.032Z" fill="#1C396F" stroke="white" stroke-width="2"/>
<path d="M136.098 120.423L125.508 139.27L114.917 120.423H136.098Z" fill="white" stroke="#1C396F" stroke-width="2"/>
<path d="M125.508 140.835L120.995 132.549H130.021L125.508 140.835Z" fill="#1C396F"/>
<path d="M137.407 36.4361H113.61V48.2414H137.407V36.4361Z" fill="#1C396F"/>
<path d="M125.508 40.6315C132.079 40.6315 137.407 38.7532 137.407 36.4361C137.407 34.119 132.079 32.2407 125.508 32.2407C118.937 32.2407 113.61 34.119 113.61 36.4361C113.61 38.7532 118.937 40.6315 125.508 40.6315Z" fill="#1C396F"/>
<path d="M137.407 42.8374H113.61V119.66H137.407V42.8374Z" fill="#1C396F"/>
<path d="M125.508 46.9247C132.079 46.9247 137.407 45.0463 137.407 42.7293C137.407 40.4122 132.079 38.5338 125.508 38.5338C118.937 38.5338 113.61 40.4122 113.61 42.7293C113.61 45.0463 118.937 46.9247 125.508 46.9247Z" fill="#1C396F"/>
</g>
<defs>
<clipPath id="clip0_613_0">
<rect width="92.8838" height="121.286" fill="white" transform="translate(46.0581 32.2407)"/>
</clipPath>
</defs>
</svg>
