<svg width="221" height="36" viewBox="0 0 221 36" fill="none" xmlns="http://www.w3.org/2000/svg">
<path d="M14.2207 24.4737H14.1523C13.5599 25.4956 12.7625 26.2388 11.76 26.7033C10.7575 27.1679 9.67532 27.4001 8.51336 27.4001C7.23748 27.4001 6.09831 27.1795 5.09583 26.7382C4.11614 26.2737 3.27315 25.6466 2.56686 24.8569C1.86057 24.0672 1.32516 23.1382 0.960623 22.0698C0.596086 21.0014 0.413818 19.8517 0.413818 18.6208C0.413818 17.3898 0.607478 16.2401 0.994798 15.1717C1.38212 14.1033 1.91753 13.1743 2.60104 12.3846C3.30733 11.595 4.15032 10.9795 5.13001 10.5382C6.1097 10.0737 7.18052 9.84146 8.34248 9.84146C9.11712 9.84146 9.80063 9.92275 10.393 10.0853C10.9854 10.2479 11.5094 10.4569 11.9651 10.7124C12.4208 10.9679 12.8081 11.2466 13.1271 11.5486C13.446 11.8272 13.708 12.1059 13.9131 12.3846H14.0156V0.644043H18.1166V26.9821H14.2207V24.4737ZM4.51485 18.6208C4.51485 19.2711 4.61738 19.8982 4.82243 20.5021C5.05027 21.1059 5.36923 21.6401 5.77934 22.1046C6.21222 22.5691 6.72485 22.9408 7.31722 23.2195C7.9096 23.4982 8.58171 23.6375 9.33356 23.6375C10.0854 23.6375 10.7575 23.4982 11.3499 23.2195C11.9423 22.9408 12.4435 22.5691 12.8537 22.1046C13.2865 21.6401 13.6055 21.1059 13.8106 20.5021C14.0384 19.8982 14.1523 19.2711 14.1523 18.6208C14.1523 17.9704 14.0384 17.3433 13.8106 16.7395C13.6055 16.1356 13.2865 15.6014 12.8537 15.1369C12.4435 14.6724 11.9423 14.3008 11.3499 14.0221C10.7575 13.7433 10.0854 13.604 9.33356 13.604C8.58171 13.604 7.9096 13.7433 7.31722 14.0221C6.72485 14.3008 6.21222 14.6724 5.77934 15.1369C5.36923 15.6014 5.05027 16.1356 4.82243 16.7395C4.61738 17.3433 4.51485 17.9704 4.51485 18.6208ZM22.2479 10.2595H26.3489V12.9072H26.4172C26.8729 11.9317 27.5222 11.1769 28.3652 10.6428C29.2082 10.1086 30.1765 9.84146 31.2701 9.84146C31.5207 9.84146 31.76 9.86469 31.9878 9.91114C32.2384 9.95759 32.489 10.0157 32.7397 10.0853V14.1266C32.3979 14.0337 32.0562 13.964 31.7144 13.9175C31.3954 13.8479 31.0765 13.813 30.7575 13.813C29.8006 13.813 29.026 13.9988 28.4336 14.3704C27.864 14.7188 27.4197 15.1253 27.1007 15.5898C26.8046 16.0543 26.5995 16.5188 26.4856 16.9833C26.3945 17.4479 26.3489 17.7962 26.3489 18.0285V26.9821H22.2479V10.2595ZM45.2707 24.6827H45.1682C44.5758 25.635 43.824 26.3317 42.9126 26.773C42.0013 27.1911 40.9988 27.4001 39.9052 27.4001C39.1533 27.4001 38.4129 27.2956 37.6838 27.0866C36.9775 26.8775 36.3396 26.564 35.77 26.1459C35.2232 25.7279 34.7789 25.2053 34.4371 24.5782C34.0954 23.9511 33.9245 23.2195 33.9245 22.3833C33.9245 21.4775 34.084 20.7111 34.403 20.084C34.7219 19.4337 35.1434 18.8995 35.6675 18.4814C36.2143 18.0401 36.8408 17.6917 37.5471 17.4362C38.2534 17.1808 38.9825 16.995 39.7343 16.8788C40.509 16.7395 41.2836 16.6582 42.0582 16.635C42.8329 16.5885 43.5619 16.5653 44.2455 16.5653H45.2707V16.1124C45.2707 15.0672 44.9176 14.2891 44.2113 13.7782C43.505 13.244 42.605 12.9769 41.5114 12.9769C40.6457 12.9769 39.8368 13.1395 39.085 13.4646C38.3331 13.7666 37.6838 14.1846 37.137 14.7188L34.984 12.524C35.8953 11.5718 36.9547 10.8866 38.1623 10.4686C39.3926 10.0505 40.657 9.84146 41.9557 9.84146C43.1177 9.84146 44.0974 9.98082 44.8948 10.2595C45.6922 10.515 46.3529 10.8518 46.8769 11.2699C47.401 11.6879 47.7997 12.1756 48.0731 12.733C48.3693 13.2672 48.5743 13.813 48.6882 14.3704C48.8249 14.9279 48.9047 15.4737 48.9275 16.0079C48.9502 16.5188 48.9616 16.9717 48.9616 17.3666V26.9821H45.2707V24.6827ZM45.0315 19.4917H44.1771C43.6075 19.4917 42.9696 19.515 42.2633 19.5614C41.557 19.6079 40.8849 19.724 40.2469 19.9098C39.6318 20.0724 39.1078 20.3279 38.6749 20.6762C38.242 21.0014 38.0255 21.4659 38.0255 22.0698C38.0255 22.4646 38.1053 22.8014 38.2648 23.0801C38.447 23.3356 38.6749 23.5562 38.9483 23.7421C39.2217 23.9279 39.5293 24.0672 39.871 24.1601C40.2128 24.2298 40.5545 24.2646 40.8963 24.2646C42.3088 24.2646 43.3455 23.9279 44.0062 23.2543C44.6897 22.5575 45.0315 21.6169 45.0315 20.4324V19.4917ZM50.64 10.2595H55.0828L58.637 21.9653H58.7053L62.0203 10.2595H66.4631L70.0174 21.9653H70.0857L73.5032 10.2595H77.6384L72.0679 26.9821H68.001L64.105 15.555H64.0367L60.585 26.9821H56.3472L50.64 10.2595ZM79.6171 10.2595H83.7181V26.9821H79.6171V10.2595ZM79.0361 4.58082C79.0361 3.90727 79.2753 3.32663 79.7538 2.83888C80.255 2.32792 80.8816 2.07243 81.6334 2.07243C82.3853 2.07243 83.0118 2.3163 83.513 2.80405C84.0371 3.26856 84.2991 3.86082 84.2991 4.58082C84.2991 5.30082 84.0371 5.90469 83.513 6.39243C83.0118 6.85695 82.3853 7.08921 81.6334 7.08921C80.8816 7.08921 80.255 6.84534 79.7538 6.35759C79.2753 5.84663 79.0361 5.25437 79.0361 4.58082ZM87.9137 10.2595H91.8097V12.9421H91.878C92.2653 12.1059 92.8577 11.386 93.6551 10.7821C94.4525 10.155 95.5348 9.84146 96.9018 9.84146C97.9954 9.84146 98.9181 10.0273 99.67 10.3989C100.445 10.7705 101.071 11.2582 101.55 11.8621C102.028 12.4659 102.37 13.1627 102.575 13.9524C102.78 14.7421 102.882 15.5666 102.882 16.4259V26.9821H98.7814V18.5162C98.7814 18.0517 98.7586 17.5408 98.7131 16.9833C98.6675 16.4027 98.5422 15.8685 98.3371 15.3808C98.1549 14.8698 97.8587 14.4517 97.4486 14.1266C97.0385 13.7782 96.4803 13.604 95.774 13.604C95.0905 13.604 94.5095 13.7201 94.0311 13.9524C93.5754 14.1846 93.1881 14.4982 92.8691 14.893C92.5729 15.2879 92.3565 15.7408 92.2198 16.2517C92.0831 16.7627 92.0147 17.2969 92.0147 17.8543V26.9821H87.9137V10.2595ZM123.908 10.2595V25.484C123.908 26.9937 123.726 28.3524 123.361 29.5601C122.997 30.7911 122.427 31.8246 121.653 32.6608C120.901 33.5201 119.944 34.1821 118.782 34.6467C117.62 35.1111 116.242 35.3433 114.647 35.3433C113.12 35.3433 111.673 35.1459 110.306 34.7511C108.939 34.3564 107.675 33.6364 106.513 32.5912L108.973 29.1769C109.793 29.9433 110.648 30.5356 111.536 30.9537C112.425 31.3717 113.45 31.5808 114.613 31.5808C115.592 31.5808 116.412 31.4414 117.073 31.1627C117.757 30.884 118.292 30.5008 118.679 30.013C119.089 29.5253 119.374 28.933 119.534 28.2362C119.716 27.5627 119.807 26.8079 119.807 25.9717V24.7524H119.739C119.146 25.5653 118.36 26.1808 117.381 26.5988C116.401 26.9937 115.399 27.1911 114.373 27.1911C113.143 27.1911 112.026 26.9704 111.024 26.5291C110.021 26.0646 109.155 25.4491 108.426 24.6827C107.72 23.9162 107.173 23.0104 106.786 21.9653C106.399 20.9201 106.205 19.8053 106.205 18.6208C106.205 17.3898 106.387 16.2401 106.752 15.1717C107.116 14.1033 107.652 13.1743 108.358 12.3846C109.064 11.595 109.907 10.9795 110.887 10.5382C111.889 10.0737 113.029 9.84146 114.305 9.84146C115.467 9.84146 116.549 10.0737 117.552 10.5382C118.554 11.0028 119.352 11.7459 119.944 12.7679H120.012V10.2595H123.908ZM115.159 13.604C114.43 13.604 113.769 13.7317 113.177 13.9872C112.584 14.2195 112.072 14.5562 111.639 14.9975C111.229 15.4156 110.898 15.9382 110.648 16.5653C110.42 17.1691 110.306 17.8427 110.306 18.5859C110.306 19.2595 110.42 19.8866 110.648 20.4672C110.898 21.0479 111.24 21.5588 111.673 22.0001C112.106 22.4414 112.619 22.7898 113.211 23.0453C113.803 23.3008 114.442 23.4285 115.125 23.4285C115.877 23.4285 116.549 23.3008 117.142 23.0453C117.757 22.7898 118.269 22.453 118.679 22.035C119.112 21.5937 119.443 21.0711 119.67 20.4672C119.898 19.8633 120.012 19.213 120.012 18.5162C120.012 17.053 119.579 15.8685 118.714 14.9627C117.848 14.0569 116.663 13.604 115.159 13.604ZM141.675 24.613C140.9 25.5653 140.023 26.2737 139.043 26.7382C138.064 27.1795 137.004 27.4001 135.865 27.4001C134.657 27.4001 133.541 27.1911 132.516 26.773C131.491 26.355 130.613 25.7743 129.884 25.0311C129.155 24.2646 128.586 23.3704 128.176 22.3485C127.765 21.3033 127.56 20.1653 127.56 18.9343C127.56 17.7033 127.765 16.5769 128.176 15.555C128.586 14.5098 129.155 13.6156 129.884 12.8724C130.613 12.1059 131.491 11.5137 132.516 11.0957C133.541 10.6776 134.657 10.4686 135.865 10.4686C137.027 10.4686 138.098 10.7124 139.077 11.2002C140.08 11.6879 140.968 12.373 141.743 13.2556L140.103 14.5098C139.51 13.8362 138.861 13.3137 138.155 12.9421C137.448 12.5472 136.685 12.3498 135.865 12.3498C134.908 12.3498 134.042 12.524 133.268 12.8724C132.493 13.2208 131.832 13.6969 131.286 14.3008C130.739 14.8814 130.317 15.5782 130.021 16.3911C129.748 17.1808 129.611 18.0285 129.611 18.9343C129.611 19.8401 129.748 20.6995 130.021 21.5124C130.317 22.3021 130.739 22.9988 131.286 23.6027C131.832 24.1833 132.493 24.6479 133.268 24.9962C134.042 25.3446 134.908 25.5188 135.865 25.5188C136.731 25.5188 137.517 25.3214 138.223 24.9266C138.952 24.5085 139.579 23.9627 140.103 23.2891L141.675 24.613ZM156.658 20.2233C156.658 21.013 156.658 21.7214 156.658 22.3485C156.681 22.9756 156.704 23.5562 156.727 24.0904C156.749 24.6246 156.772 25.124 156.795 25.5885C156.841 26.053 156.898 26.5175 156.966 26.9821H155.052C154.915 26.1924 154.847 25.3214 154.847 24.3691H154.779C154.186 25.4143 153.446 26.1808 152.557 26.6685C151.692 27.1562 150.587 27.4001 149.242 27.4001C148.559 27.4001 147.887 27.3072 147.226 27.1214C146.565 26.9588 145.973 26.6917 145.449 26.3201C144.925 25.9253 144.492 25.4259 144.15 24.8221C143.831 24.2182 143.672 23.4866 143.672 22.6272C143.672 21.3962 143.979 20.4208 144.594 19.7008C145.21 18.9808 145.961 18.4466 146.85 18.0982C147.761 17.7266 148.718 17.4943 149.721 17.4014C150.746 17.2853 151.646 17.2272 152.421 17.2272H154.813V16.2517C154.813 14.8582 154.391 13.8595 153.548 13.2556C152.705 12.6517 151.646 12.3498 150.37 12.3498C148.547 12.3498 146.941 12.9537 145.551 14.1614L144.355 12.733C145.107 11.9898 146.041 11.4324 147.158 11.0608C148.274 10.666 149.345 10.4686 150.37 10.4686C152.284 10.4686 153.81 10.9331 154.95 11.8621C156.089 12.7679 156.658 14.2427 156.658 16.2866V20.2233ZM152.557 18.8995C151.692 18.8995 150.849 18.9575 150.028 19.0737C149.231 19.1898 148.502 19.3872 147.841 19.6659C147.203 19.9446 146.691 20.3162 146.303 20.7808C145.916 21.2453 145.722 21.8259 145.722 22.5227C145.722 23.0104 145.825 23.4517 146.03 23.8466C146.258 24.2182 146.542 24.5317 146.884 24.7872C147.226 25.0195 147.602 25.2053 148.012 25.3446C148.445 25.4608 148.878 25.5188 149.311 25.5188C150.404 25.5188 151.304 25.3562 152.011 25.0311C152.717 24.7059 153.275 24.2879 153.685 23.7769C154.118 23.2427 154.414 22.6504 154.574 22.0001C154.733 21.3266 154.813 20.653 154.813 19.9795V18.8995H152.557ZM161.155 10.8866H163.205V13.7085H163.274C163.593 13.1511 163.991 12.675 164.47 12.2801C164.948 11.8621 165.461 11.5253 166.008 11.2699C166.577 10.9911 167.17 10.7937 167.785 10.6776C168.4 10.5382 169.004 10.4686 169.596 10.4686C170.803 10.4686 171.908 10.6776 172.911 11.0957C173.936 11.5137 174.813 12.1059 175.542 12.8724C176.294 13.6156 176.875 14.5098 177.285 15.555C177.696 16.5769 177.901 17.7033 177.901 18.9343C177.901 20.1653 177.696 21.3033 177.285 22.3485C176.875 23.3704 176.294 24.2646 175.542 25.0311C174.813 25.7743 173.936 26.355 172.911 26.773C171.908 27.1911 170.803 27.4001 169.596 27.4001C169.004 27.4001 168.4 27.3304 167.785 27.1911C167.17 27.075 166.577 26.8891 166.008 26.6337C165.461 26.355 164.948 26.0182 164.47 25.6233C163.991 25.2053 163.593 24.7175 163.274 24.1601H163.205V34.9254H161.155V10.8866ZM163 18.9343C163 19.8401 163.171 20.6995 163.513 21.5124C163.855 22.3021 164.322 22.9988 164.914 23.6027C165.506 24.1833 166.201 24.6479 166.999 24.9962C167.796 25.3446 168.662 25.5188 169.596 25.5188C170.553 25.5188 171.419 25.3446 172.193 24.9962C172.968 24.6479 173.629 24.1833 174.175 23.6027C174.722 22.9988 175.132 22.3021 175.406 21.5124C175.702 20.6995 175.85 19.8401 175.85 18.9343C175.85 18.0285 175.702 17.1808 175.406 16.3911C175.132 15.5782 174.722 14.8814 174.175 14.3008C173.629 13.6969 172.968 13.2208 172.193 12.8724C171.419 12.524 170.553 12.3498 169.596 12.3498C168.662 12.3498 167.796 12.524 166.999 12.8724C166.201 13.2208 165.506 13.6969 164.914 14.3008C164.322 14.8814 163.855 15.5782 163.513 16.3911C163.171 17.1808 163 18.0285 163 18.9343ZM182.321 10.8866H184.371V26.9821H182.321V10.8866ZM181.808 4.51114C181.808 4.06985 181.956 3.69824 182.252 3.3963C182.548 3.09437 182.913 2.9434 183.346 2.9434C183.779 2.9434 184.143 3.09437 184.439 3.3963C184.736 3.69824 184.884 4.06985 184.884 4.51114C184.884 4.95243 184.736 5.32405 184.439 5.62598C184.143 5.92792 183.779 6.07888 183.346 6.07888C182.913 6.07888 182.548 5.92792 182.252 5.62598C181.956 5.32405 181.808 4.95243 181.808 4.51114ZM197.4 12.7679H192.889V23.2543C192.889 23.9743 193.082 24.5317 193.47 24.9266C193.857 25.3214 194.392 25.5188 195.076 25.5188C195.463 25.5188 195.851 25.4724 196.238 25.3795C196.648 25.2633 197.035 25.124 197.4 24.9614L197.571 26.8427C197.183 26.9821 196.739 27.1098 196.238 27.2259C195.737 27.3421 195.292 27.4001 194.905 27.4001C194.176 27.4001 193.549 27.284 193.025 27.0517C192.501 26.8427 192.08 26.5524 191.761 26.1808C191.442 25.8091 191.203 25.3795 191.043 24.8917C190.907 24.3808 190.838 23.835 190.838 23.2543V12.7679H187.421V10.8866H190.838V6.25308H192.889V10.8866H197.4V12.7679ZM212.813 20.2233C212.813 21.013 212.813 21.7214 212.813 22.3485C212.836 22.9756 212.858 23.5562 212.881 24.0904C212.904 24.6246 212.927 25.124 212.95 25.5885C212.995 26.053 213.052 26.5175 213.12 26.9821H211.207C211.07 26.1924 211.002 25.3214 211.002 24.3691H210.933C210.341 25.4143 209.6 26.1808 208.712 26.6685C207.846 27.1562 206.741 27.4001 205.397 27.4001C204.713 27.4001 204.041 27.3072 203.38 27.1214C202.72 26.9588 202.127 26.6917 201.603 26.3201C201.079 25.9253 200.646 25.4259 200.305 24.8221C199.986 24.2182 199.826 23.4866 199.826 22.6272C199.826 21.3962 200.134 20.4208 200.749 19.7008C201.364 18.9808 202.116 18.4466 203.005 18.0982C203.916 17.7266 204.873 17.4943 205.875 17.4014C206.901 17.2853 207.8 17.2272 208.575 17.2272H210.967V16.2517C210.967 14.8582 210.546 13.8595 209.703 13.2556C208.86 12.6517 207.8 12.3498 206.525 12.3498C204.702 12.3498 203.096 12.9537 201.706 14.1614L200.51 12.733C201.262 11.9898 202.196 11.4324 203.312 11.0608C204.429 10.666 205.499 10.4686 206.525 10.4686C208.438 10.4686 209.965 10.9331 211.104 11.8621C212.243 12.7679 212.813 14.2427 212.813 16.2866V20.2233ZM208.712 18.8995C207.846 18.8995 207.003 18.9575 206.183 19.0737C205.385 19.1898 204.656 19.3872 203.996 19.6659C203.358 19.9446 202.845 20.3162 202.458 20.7808C202.07 21.2453 201.877 21.8259 201.877 22.5227C201.877 23.0104 201.979 23.4517 202.184 23.8466C202.412 24.2182 202.697 24.5317 203.039 24.7872C203.38 25.0195 203.756 25.2053 204.167 25.3446C204.599 25.4608 205.032 25.5188 205.465 25.5188C206.559 25.5188 207.459 25.3562 208.165 25.0311C208.871 24.7059 209.43 24.2879 209.84 23.7769C210.272 23.2427 210.569 22.6504 210.728 22.0001C210.888 21.3266 210.967 20.653 210.967 19.9795V18.8995H208.712ZM218.095 0.644043H220.146V26.9821H218.095V0.644043Z" fill="#1C396F"/>
</svg>
